<svg xmlns="http://www.w3.org/2000/svg" viewBox="0 0 78.95 46.2"><defs><style>.cls-1{fill:#231f20;}</style></defs><g id="Layer_2" data-name="Layer 2"><g id="Layer_2-2" data-name="Layer 2"><rect class="cls-1" x="53" y="25.47" width="3.53" height="1.27"/><path class="cls-1" d="M62.74,46.2a7.49,7.49,0,1,0-7.49-7.48A7.49,7.49,0,0,0,62.74,46.2Zm0-12.43a4.95,4.95,0,1,1-5,4.95A5,5,0,0,1,62.74,33.77Z"/><path class="cls-1" d="M62.74,41.37a2.65,2.65,0,1,0-2.65-2.65A2.65,2.65,0,0,0,62.74,41.37Z"/><path class="cls-1" d="M12.16,36.31a9.05,9.05,0,0,1,17.48,0l.26.94H53.75l.25-.94a9.06,9.06,0,0,1,17.47,0l.25.94H79V27.34c-.19-3.79-5.15-5.64-5.36-5.72l-.21-.08H65.46L58.2,12.15l-7.52.19v-.83h0V0H0V37.25H11.91ZM51,14.87l6-.15,7.24,9.36H72.9a9.54,9.54,0,0,1,1.77,1,3.65,3.65,0,0,1,1.74,2.39v7.27h-2.8a11.59,11.59,0,0,0-21.75,0H51ZM2.54,2.54h45.6V9h0V22.73H2.54Zm0,32.17V25.26h45.6v9.45H31.79a11.59,11.59,0,0,0-21.78,0Z"/><path class="cls-1" d="M28.87,38.68a7.49,7.49,0,1,0-7.48,7.49A7.49,7.49,0,0,0,28.87,38.68Zm-12.43,0a4.95,4.95,0,1,1,4.95,5A5,5,0,0,1,16.44,38.68Z"/><path class="cls-1" d="M24,38.68a2.65,2.65,0,1,0-2.65,2.65A2.65,2.65,0,0,0,24,38.68Z"/><polygon class="cls-1" points="55.7 16.32 52.59 16.32 52.59 23.98 61.65 23.98 55.7 16.32"/></g></g></svg>