<svg xmlns="http://www.w3.org/2000/svg" viewBox="0 0 55.78 58.46"><defs><style>.cls-1{fill:#231f20;}</style></defs><g id="Layer_2" data-name="Layer 2"><g id="Layer_2-2" data-name="Layer 2"><path class="cls-1" d="M.84,2.31,10.3,5.22l5.44,13.54a1.27,1.27,0,0,0-.28.46l-2.65,8.15a1.13,1.13,0,0,0,0,.81l7.4,18.15a9.2,9.2,0,0,0-.43,2.79,9.34,9.34,0,1,0,18.38-2.38l16.87-7.2a1.18,1.18,0,1,0-.93-2.17L37.29,44.55a9.26,9.26,0,0,0-1.22-1.7L51.91,36.3a.86.86,0,0,0,.46-.46.82.82,0,0,0,0-.65l-8.2-19.8a.84.84,0,0,0-1.1-.46l-1.67.69-5.79-14a.85.85,0,0,0-.46-.45.82.82,0,0,0-.65,0L19.44,7.4a.83.83,0,0,0-.46.46.88.88,0,0,0,0,.64l5.8,14-1.94.8a.85.85,0,0,0-.46,1.11l6.37,15.38a9.17,9.17,0,0,0-1.91.28L12.28,3.81a1.16,1.16,0,0,0-.75-.68L1.53.05A1.18,1.18,0,1,0,.84,2.31Zm20,6.33L25,6.91l1.61,3.89,5.16-2.14L30.2,4.77l4.17-1.72,5.46,13.18L26.32,21.82Zm8.28,33.5a5.49,5.49,0,0,1,.58,0,6.92,6.92,0,0,1,2,.48l.19.08a7.1,7.1,0,0,1,3.15,2.75,7,7,0,0,1,.88,2.2,6.9,6.9,0,0,1,.15,1.44,7,7,0,1,1-10.6-6,6.8,6.8,0,0,1,2.2-.87A6.71,6.71,0,0,1,29.15,42.14Zm-4.89-17.6,5.87-2.43,2.28,5.49,6.93-2.87-2.27-5.49,5.87-2.43,7.55,18.25L34.68,41.6a9.13,9.13,0,0,0-4.06-1.7Zm-2.6,19L19,36.93l3.26-2,2.42,6A9.34,9.34,0,0,0,21.66,43.55Zm-3.61-8.84-2.86-7L17,22,21.33,32.7Z"/><path class="cls-1" d="M29.15,53.14a4,4,0,0,0,4-4,1.93,1.93,0,0,0,0-.24,4,4,0,0,0-4-3.78h-.28a4,4,0,0,0,.28,8Z"/></g></g></svg>