<svg xmlns="http://www.w3.org/2000/svg" viewBox="0 0 50.27 50.19"><defs><style>.cls-1{fill:#231f20;}</style></defs><g id="Layer_2" data-name="Layer 2"><g id="Layer_2-2" data-name="Layer 2"><path class="cls-1" d="M1.18,50.19H37.65l.05,0,0,0,0,0,.06,0,0,0L38,50l0,0,0,0,.05,0,0,0L49.91,38.27h0l0-.06,0,0,.07-.09,0-.06,0,0,0-.06,0,0a.14.14,0,0,0,0-.06s0,0,0,0,0,0,0-.05,0,0,0-.07,0-.07,0-.11v-.12h0V1.18A1.18,1.18,0,0,0,49.08,0H12.74l-.06,0h-.06l0,0-.06,0,0,0-.05,0-.05,0,0,0-.05,0,0,0-.06,0,0,0L.35,11.92h0L.29,12l0,0-.06.08,0,.07,0,0,0,.05a.08.08,0,0,1,0,.05s0,0,0,0a.14.14,0,0,1,0,.06s0,0,0,.05l0,.06s0,.08,0,.12v.11H0V49A1.18,1.18,0,0,0,1.18,50.19Zm34.94-2.37H2.36V13.94H13.58V32.19L16.69,30l2.39,2.17,2.35-2.26,3.65,2.26V13.94h11Zm2.37-34.58L47.9,3.71V36.93l-9.41,9.26Zm-1.68-1.66H26.49l9-9.22H45.91ZM13.45,2.36H23.92l-9.36,9.22H4.07Z"/><path class="cls-1" d="M16.23,38.28H3.8a.42.42,0,0,0-.43.42v7.13a.42.42,0,0,0,.43.42H16.23a.42.42,0,0,0,.42-.42V38.7A.42.42,0,0,0,16.23,38.28Zm-.42,7.13H4.22V39.12H15.81Z"/><rect class="cls-1" x="4.92" y="39.86" width="0.66" height="4.87"/><rect class="cls-1" x="14.47" y="39.86" width="0.56" height="4.87"/><rect class="cls-1" x="6.06" y="39.86" width="0.66" height="4.87"/><rect class="cls-1" x="8.59" y="39.86" width="0.66" height="4.87"/><rect class="cls-1" x="10.94" y="39.86" width="0.56" height="4.87"/><rect class="cls-1" x="11.9" y="39.86" width="0.56" height="4.87"/><rect class="cls-1" x="9.69" y="39.86" width="0.93" height="4.87"/><rect class="cls-1" x="7.06" y="39.86" width="1.07" height="4.87"/><rect class="cls-1" x="12.92" y="39.86" width="1.07" height="4.87"/></g></g></svg>