<svg xmlns="http://www.w3.org/2000/svg" viewBox="0 0 100.37 41.7"><defs><style>.cls-1{fill:#231f20;}</style></defs><g id="Layer_2" data-name="Layer 2"><g id="Layer_2-2" data-name="Layer 2"><path class="cls-1" d="M32.62,33.27a8.43,8.43,0,1,0-8.43,8.43A8.44,8.44,0,0,0,32.62,33.27Zm-14.32,0a5.89,5.89,0,1,1,5.89,5.89A5.89,5.89,0,0,1,18.3,33.27Z"/><circle class="cls-1" cx="24.19" cy="33.27" r="3.05"/><path class="cls-1" d="M87.41,33.27A8.43,8.43,0,1,0,79,41.7,8.44,8.44,0,0,0,87.41,33.27Zm-14.31,0A5.89,5.89,0,1,1,79,39.16,5.89,5.89,0,0,1,73.1,33.27Z"/><circle class="cls-1" cx="78.99" cy="33.27" r="3.05"/><rect class="cls-1" x="32.22" y="14.42" width="5.16" height="1.63"/><rect class="cls-1" x="51.79" y="14.42" width="5.16" height="1.63"/><path class="cls-1" d="M95.21,13.22a1.34,1.34,0,0,0-.74-.32L70.25,10.62,60.47.39A1.26,1.26,0,0,0,59.56,0H32.48a1.29,1.29,0,0,0-.78.27L17.15,11.82h-12a1.27,1.27,0,0,0-1.1.64L.17,19.26a1.29,1.29,0,0,0-.13,1L2.76,30.43A1.28,1.28,0,0,0,4,31.37h9.39a1.28,1.28,0,0,0,1.22-.91,10,10,0,0,1,19.59,2.81,9.55,9.55,0,0,1-.06,1.06,1.27,1.27,0,0,0,.32,1,1.29,1.29,0,0,0,.94.42h32.4a1.27,1.27,0,0,0,1.27-1.27,1.79,1.79,0,0,0,0-.23c0-.32-.05-.64-.05-1A10,10,0,0,1,88.6,30.51a1.27,1.27,0,0,0,1.22.92H96a1.27,1.27,0,0,0,1.22-.94l3.11-11.7a1.28,1.28,0,0,0-.37-1.27ZM5.89,14.36h11.7a1.27,1.27,0,0,0,.79-.28L32.93,2.54H59l9.73,10.17a1.3,1.3,0,0,0,.8.39l24.28,2.29,2.57,2.33H4ZM95,28.89H90.73a12.53,12.53,0,0,0-24.28,4.3H36.72a12.53,12.53,0,0,0-24.25-4.36H5L2.68,20.26H97.31Z"/><polygon class="cls-1" points="46.92 4.48 46.92 12.33 64.45 12.33 57.8 4.48 46.92 4.48"/><polygon class="cls-1" points="25.15 12.33 44.62 12.33 44.62 4.48 33.92 4.48 25.15 12.33"/></g></g></svg>