<svg xmlns="http://www.w3.org/2000/svg" viewBox="0 0 77.27 49.92"><defs><style>.cls-1{fill:#231f20;}</style></defs><g id="Layer_2" data-name="Layer 2"><g id="Layer_2-2" data-name="Layer 2"><path class="cls-1" d="M65.12,42.45a2.69,2.69,0,1,0-2.58-2.68A2.63,2.63,0,0,0,65.12,42.45Z"/><path class="cls-1" d="M76.54,34.88c-3.17-7.66-9.07-9.7-12.2-10.24.67-1.47,1-2.43,1-2.52l.12-.34L63.11,11.06l1-.87h0c.94,0,1.7-2.27,1.7-5s-.76-5-1.7-5V0L53.72,3.17V4.5L49.39,5.82,50,8.3l3.73.5v1l4,1.94V12c-6,1-7.4,9.78-8.19,14.65-.17,1.07-.32,2-.46,2.53A2.41,2.41,0,0,1,47.23,31a4.25,4.25,0,0,1-1.32.12H39.25l-2.6-.33c-1.61-1.1-2.61-3.26-3-6.42l10.06-8.77h-.38a1.12,1.12,0,0,0-.45-.85l-3.83-3.64A6,6,0,0,0,35.5,9.73H26.89a2,2,0,0,0-2.09,1.95v2.53a1.87,1.87,0,0,0,.66,1.41l-.1,0a47.11,47.11,0,0,0-12.57,5.45C4.42,26.33,0,33.4,0,41.56v1.27H5.53a9.87,9.87,0,0,0,9.34,7.09,9.85,9.85,0,0,0,9.34-7.09H43.12v0a19.69,19.69,0,0,0,7.08-2h5.17a9.79,9.79,0,0,0,19.55-1,10.35,10.35,0,0,0-.48-3.13h2.83Zm-3.29-.78H60.65l-1.91,2-2,2.1H54.18c.52-.41,1-.85,1.54-1.31A32.88,32.88,0,0,0,60,32c.37-.51.72-1,1-1.51.81-1.22,1.5-2.41,2.07-3.48a13,13,0,0,1,4,1.11,13.41,13.41,0,0,1,6.25,6Zm-.87,5.67a7.25,7.25,0,0,1-14.47.93l3.84-4.06h10A7.89,7.89,0,0,1,72.38,39.77Zm-29.9.52H2.58c.42-6.76,4.29-12.49,11.5-17a45.37,45.37,0,0,1,11.73-5.12H37L31,23.33l0,.64c.41,4.5,1.92,7.57,4.48,9.14l.24.14,3.31.41h6.59a5.2,5.2,0,0,0,.52,0,6.42,6.42,0,0,0,1.7-.23,4.94,4.94,0,0,0,3.58-3.6c.18-.67.33-1.6.52-2.79.76-4.71,2-12.6,6.78-12.6h.14l1.3,0V10.17l-4-1.95V5.05l5.31-1.62V9l-1.26,1.11,2.55,11.46c-.18.49-.58,1.49-1.21,2.78-.18.38-.39.79-.61,1.22s-.43.79-.67,1.21A38.6,38.6,0,0,1,58,30.59a27.25,27.25,0,0,1-6.73,6.68,20.15,20.15,0,0,1-2,1.16,18.12,18.12,0,0,1-1.81.8A17,17,0,0,1,42.48,40.29ZM14.87,47.38a7.29,7.29,0,0,1-6.65-4.55h13.3A7.28,7.28,0,0,1,14.87,47.38Z"/><polygon class="cls-1" points="20.35 31.35 22.46 31.35 22.46 28.82 14.41 28.82 14.41 29.63 14.41 30.9 14.41 31.35 17.6 31.35 20.35 31.35"/><polygon class="cls-1" points="21.12 33.72 19.28 33.72 11.94 33.72 11.94 36.26 21.31 36.26 22.71 36.26 24.07 36.26 24.91 36.26 24.91 33.72 22.74 33.72 21.12 33.72"/></g></g></svg>