<svg xmlns="http://www.w3.org/2000/svg" viewBox="0 0 56.88 55.14"><defs><style>.cls-1{fill:#231f20;}</style></defs><g id="Layer_2" data-name="Layer 2"><g id="Layer_2-2" data-name="Layer 2"><g id="_5" data-name="5"><path class="cls-1" d="M53.9,54.67H1.82a.78.78,0,0,1-.77-.77V48.11a.77.77,0,0,1,.77-.77H6.26V22.7L4.58,23.87a.78.78,0,0,1-1.07-.19L.62,19.63A.77.77,0,0,1,.49,19a.7.7,0,0,1,.33-.5L28,.6a.77.77,0,0,1,.85,0l27.2,17.94a.77.77,0,0,1,.2,1.09l-2.89,4.05a.78.78,0,0,1-1.07.19l-2.84-2V47.34H53.9a.77.77,0,0,1,.77.77V53.9A.78.78,0,0,1,53.9,54.67ZM2.59,53.13H53.12V48.88H2.59ZM7.8,47.34H47.92V20.84L28.44,7.39,7.8,21.64ZM28.44,5.68a.82.82,0,0,1,.44.14L52.55,22.17l2-2.79L28.44,2.17,2.34,19.38l2,2.79,2.07-1.43a.75.75,0,0,1,.46-.32L28,5.82A.77.77,0,0,1,28.44,5.68Z"/><path class="cls-1" d="M53.9,55.14H1.82A1.25,1.25,0,0,1,.58,53.9V48.11a1.24,1.24,0,0,1,1.24-1.24h4V23.61l-1,.65A1.25,1.25,0,0,1,3.12,24l-2.89-4A1.31,1.31,0,0,1,0,19a1.26,1.26,0,0,1,.54-.81L27.75.21a1.22,1.22,0,0,1,1.37,0l27.2,17.93a1.3,1.3,0,0,1,.54.81,1.27,1.27,0,0,1-.22,1L53.75,24a1.26,1.26,0,0,1-1.72.3l-2.1-1.45V46.87h4a1.24,1.24,0,0,1,1.24,1.24V53.9A1.25,1.25,0,0,1,53.9,55.14ZM1.82,47.81a.3.3,0,0,0-.29.3V53.9a.29.29,0,0,0,.29.29H53.9a.29.29,0,0,0,.29-.29V48.11a.3.3,0,0,0-.29-.3H49V21l3.58,2.48A.29.29,0,0,0,53,23.4l2.89-4a.25.25,0,0,0,.05-.22.32.32,0,0,0-.12-.2L28.6,1a.29.29,0,0,0-.33,0L1.08,18.93a.34.34,0,0,0-.13.2.33.33,0,0,0,.05.22l2.89,4a.3.3,0,0,0,.42.08L6.73,21.8v26ZM53.6,53.6H2.12V48.41H53.6Zm-50.53-1H52.65V49.36H3.07Zm45.32-4.84H7.33V21.39L28.44,6.81l20,13.78ZM8.28,46.87H47.44V21.09L28.44,8,8.28,21.89Zm-4.07-24L1.67,19.26,28.44,1.6,55.21,19.26l-2.54,3.56L28.61,6.21a.3.3,0,0,0-.34,0L7.05,20.86l-.09,0a.36.36,0,0,0-.18.12l0,.08ZM28.44,5.21a1.22,1.22,0,0,1,.71.22L52.44,21.51l1.43-2L28.44,2.74,3,19.51l1.43,2,1.62-1.12a1.2,1.2,0,0,1,.59-.4L27.73,5.43A1.19,1.19,0,0,1,28.44,5.21Z"/><path class="cls-1" d="M27.28,48.73a.62.62,0,0,1-.62-.62v-22a.54.54,0,0,0-.54-.54H14.55a.54.54,0,0,0-.54.54v22a.62.62,0,1,1-1.23,0v-22a1.77,1.77,0,0,1,1.77-1.77H26.12a1.78,1.78,0,0,1,1.78,1.77v22A.62.62,0,0,1,27.28,48.73Zm19.09-8.1H30.17a.62.62,0,0,1,0-1.24h2.28V26.12a1.78,1.78,0,0,1,1.77-1.77h8.1a1.78,1.78,0,0,1,1.78,1.77V39.39h2.27a.62.62,0,0,1,0,1.24ZM33.68,39.39h9.18V33.11H33.68Zm0-7.52h9.18V26.12a.54.54,0,0,0-.54-.54h-8.1a.55.55,0,0,0-.54.54Z"/><path class="cls-1" d="M27.28,49.2a1.09,1.09,0,0,1-1.09-1.09v-22a.07.07,0,0,0-.07-.06H14.55a.06.06,0,0,0-.06.06v22a1.1,1.1,0,0,1-2.19,0v-22a2.25,2.25,0,0,1,2.25-2.24H26.12a2.25,2.25,0,0,1,2.25,2.24v22A1.09,1.09,0,0,1,27.28,49.2ZM14.55,25.11H26.12a1,1,0,0,1,1,1v22a.14.14,0,0,0,.28,0v-22a1.3,1.3,0,0,0-1.3-1.3H14.55a1.3,1.3,0,0,0-1.3,1.3v22a.14.14,0,0,0,.14.14.15.15,0,0,0,.15-.14v-22A1,1,0,0,1,14.55,25.11Zm31.82,16H30.17a1.09,1.09,0,1,1,0-2.18H32V26.12a2.24,2.24,0,0,1,2.24-2.24h8.1a2.25,2.25,0,0,1,2.25,2.24v12.8h1.8a1.09,1.09,0,1,1,0,2.18Zm-16.2-1.23a.14.14,0,0,0,0,.28h16.2a.14.14,0,1,0,0-.28H43.63V26.12a1.31,1.31,0,0,0-1.31-1.3h-8.1a1.31,1.31,0,0,0-1.3,1.3V39.87Zm13.17,0H33.21V32.63H43.34Zm-9.18-.95h8.23V33.58H34.16Zm9.18-6.57H33.21V26.12a1,1,0,0,1,1-1h8.1a1,1,0,0,1,1,1Zm-9.18-1h8.23V26.12a.07.07,0,0,0-.07-.06h-8.1a.06.06,0,0,0-.06.06Z"/><path class="cls-1" d="M19.76,36.83a.87.87,0,0,1-.87.87H17.16a.87.87,0,0,1-.87-.87h0a.87.87,0,0,1,.87-.87h1.73a.87.87,0,0,1,.87.87Z"/><path class="cls-1" d="M18.89,38.17H17.16a1.34,1.34,0,1,1,0-2.68h1.73a1.34,1.34,0,1,1,0,2.68Zm-1.73-1.74a.4.4,0,0,0-.4.4.39.39,0,0,0,.4.39h1.73a.39.39,0,0,0,.4-.39.4.4,0,0,0-.4-.4Z"/></g></g></g></svg>