<svg xmlns="http://www.w3.org/2000/svg" viewBox="0 0 44.75 55.01"><defs><style>.cls-1{fill:#231f20;}</style></defs><g id="Layer_2" data-name="Layer 2"><g id="Layer_2-2" data-name="Layer 2"><g id="_10" data-name="10"><path class="cls-1" d="M1.81,55H43.38a1.3,1.3,0,0,0,1.37-1.23V28a1.2,1.2,0,0,0-.64-1L29.47,18.73V6.81A1.3,1.3,0,0,0,28.1,5.58H1.37A1.3,1.3,0,0,0,0,6.81V53.38A1.73,1.73,0,0,0,1.81,55ZM42,28.69V52.55H29.47V21.63ZM26.73,8V52.55h-24V8Z"/><path class="cls-1" d="M5.26,30.3a2.36,2.36,0,0,0,2.47,2.22h3.82A2.36,2.36,0,0,0,14,30.3V26.86a2.37,2.37,0,0,0-2.48-2.23H7.73a2.36,2.36,0,0,0-2.47,2.23Zm6.37,0s0,.06-.08.06H7.73s-.07,0-.07-.06V26.86a.08.08,0,0,1,.07-.07h3.82a.08.08,0,0,1,.08.07Z"/><path class="cls-1" d="M21.74,40.1h-14a2.36,2.36,0,0,0-2.47,2.22V53.78a1.14,1.14,0,0,0,1.2,1.08,1.14,1.14,0,0,0,1.2-1.08V42.32s0-.06.07-.06h5.81V53.78a1.21,1.21,0,0,0,2.4,0V42.26h5.8a.07.07,0,0,1,.07.06V53.78a1.21,1.21,0,0,0,2.4,0V42.32A2.36,2.36,0,0,0,21.74,40.1Z"/><path class="cls-1" d="M21.74,12.79H17.92A2.36,2.36,0,0,0,15.45,15v3.44a2.36,2.36,0,0,0,2.47,2.22h3.82a2.36,2.36,0,0,0,2.47-2.22V15A2.36,2.36,0,0,0,21.74,12.79ZM17.85,15a.07.07,0,0,1,.07-.07h3.82a.07.07,0,0,1,.07.07v3.44a.07.07,0,0,1-.07.06H17.92a.07.07,0,0,1-.07-.06Z"/><path class="cls-1" d="M7.73,20.68h3.82A2.36,2.36,0,0,0,14,18.46V15a2.37,2.37,0,0,0-2.48-2.23H7.73A2.36,2.36,0,0,0,5.26,15v3.44A2.36,2.36,0,0,0,7.73,20.68Zm3.9-2.22s0,.06-.08.06H7.73s-.07,0-.07-.06V15A.08.08,0,0,1,7.73,15h3.82a.08.08,0,0,1,.08.07Z"/><path class="cls-1" d="M25.56,0H3.92a1.14,1.14,0,0,0-1.2,1.08V6.81a1.14,1.14,0,0,0,1.2,1.08,1.15,1.15,0,0,0,1.2-1.08V2.16H24.36V6.81a1.21,1.21,0,0,0,2.4,0V1.08A1.14,1.14,0,0,0,25.56,0Z"/><path class="cls-1" d="M21.74,24.63H17.92a2.36,2.36,0,0,0-2.47,2.23V30.3a2.36,2.36,0,0,0,2.47,2.22h3.82a2.36,2.36,0,0,0,2.47-2.22V26.86A2.36,2.36,0,0,0,21.74,24.63Zm-3.89,2.23a.07.07,0,0,1,.07-.07h3.82a.07.07,0,0,1,.07.07V30.3a.07.07,0,0,1-.07.06H17.92a.07.07,0,0,1-.07-.06Z"/></g></g></g></svg>