<svg xmlns="http://www.w3.org/2000/svg" viewBox="0 0 86.76 46.7"><defs><style>.cls-1{fill:#231f20;}</style></defs><g id="Layer_2" data-name="Layer 2"><g id="Layer_2-2" data-name="Layer 2"><path class="cls-1" d="M19.48,45.83a8.24,8.24,0,1,0-8.24-8.24A8.25,8.25,0,0,0,19.48,45.83Zm0-13.95a5.71,5.71,0,1,1-5.7,5.71A5.71,5.71,0,0,1,19.48,31.88Z"/><path class="cls-1" d="M19.48,40.56a3,3,0,1,0-3-3A3,3,0,0,0,19.48,40.56Z"/><path class="cls-1" d="M9.89,40.11l-.16-1.4a10.79,10.79,0,0,1-.06-1.12,9.81,9.81,0,1,1,19.62,0c0,.3,0,.62,0,.94l-.14,1.4,29.28-.28V38.4a9.84,9.84,0,0,1,9.82-9.75A9.82,9.82,0,0,1,78,38.2l0,1.27,8.72-.22V18.17l-6.58-4.53L71.45,0H5.37L0,23.31,2.85,40.18ZM7.39,2.54H70.06l8.26,12.9,5.9,4.07V36.78l-3.77.09A12.39,12.39,0,0,0,68.21,26.11a12.38,12.38,0,0,0-12.28,11l-24.1.23a12.35,12.35,0,0,0-24.7.22h0L5,37.62,2.59,23.39Z"/><path class="cls-1" d="M76.45,38.46a8.25,8.25,0,1,0-8.24,8.24A8.25,8.25,0,0,0,76.45,38.46Zm-14,0a5.71,5.71,0,1,1,5.71,5.71A5.71,5.71,0,0,1,62.5,38.46Z"/><path class="cls-1" d="M71.18,38.46a3,3,0,1,0-3,3A3,3,0,0,0,71.18,38.46Z"/><polygon class="cls-1" points="23.73 6.33 23.7 5.89 10.06 5.89 8.06 14.84 23.73 14.84 23.73 6.33"/><polygon class="cls-1" points="68.22 5.89 55.14 5.89 55.14 6.51 55.14 14.84 73.95 14.84 68.22 5.89"/><polygon class="cls-1" points="49.95 6.26 49.95 5.89 28.68 5.89 28.68 6.26 28.68 14.84 49.95 14.84 49.95 6.26"/><rect class="cls-1" x="62.15" y="18.56" width="5.8" height="2.54"/><rect class="cls-1" x="35.57" y="18.56" width="5.8" height="2.54"/></g></g></svg>