<svg version="1.1" xmlns="http://www.w3.org/2000/svg" xmlns:xlink="http://www.w3.org/1999/xlink" viewBox="0 0 512 512"><g fill="none" fill-rule="nonzero" stroke="none" stroke-width="1" stroke-linecap="butt" stroke-linejoin="miter" stroke-miterlimit="10" stroke-dasharray="" stroke-dashoffset="0" font-family="none" font-weight="none" font-size="none" text-anchor="none" style="mix-blend-mode: normal"><path d="M0,171.99809v-171.99809h171.99809v171.99809z" fill="none"></path><g><g><path d="M142.91859,47.93344c-0.05552,-0.34639 -0.14501,-0.68647 -0.26719,-1.01531c0,0 0,0 0,-0.16031c-0.07329,-0.08674 -0.15373,-0.16718 -0.24047,-0.24047c-0.10074,-0.15409 -0.21714,-0.29735 -0.34734,-0.4275l-0.4275,-0.26719l-0.45422,-0.21375c-0.16988,-0.07267 -0.35028,-0.11777 -0.53438,-0.13359h-0.32062h-0.16031h-0.53437c-0.16409,0.04137 -0.32485,0.09496 -0.48094,0.16031h-0.16031l-64.79297,37.40625l-0.24047,0.24047l-0.4275,0.34734c-0.10447,0.13227 -0.19407,0.27563 -0.26719,0.4275c-0.08708,0.14344 -0.15873,0.29569 -0.21375,0.45422c-0.07267,0.16988 -0.11777,0.35028 -0.13359,0.53437c0,0 0,0.21375 0,0.32063v74.94609c0,0 0,0 0,0.16031c0.05552,0.34639 0.14501,0.68647 0.26719,1.01531c0,0 0,0 0,0.16031c0.12761,0.18954 0.27059,0.36827 0.4275,0.53438v0c0.21584,0.21402 0.46951,0.38615 0.74813,0.50766h0.21375c0.28858,0.1182 0.59664,0.18163 0.90844,0.18703v0c0.3114,-0.00891 0.61884,-0.0722 0.90844,-0.18703h0.24047h0.18703l26.47828,-15.28312v0c0.14607,-0.11062 0.28037,-0.23596 0.40078,-0.37406c0.13649,-0.09229 0.26199,-0.19986 0.37406,-0.32062c0.09604,-0.16123 0.17655,-0.33121 0.24047,-0.50766c0.08701,-0.13406 0.15871,-0.27746 0.21375,-0.4275c0.01331,-0.16896 0.01331,-0.3387 0,-0.50766c0.01258,-0.16899 0.01258,-0.33867 0,-0.50766c-0.03738,-0.17388 -0.09105,-0.34385 -0.16031,-0.50766c-0.04137,-0.16409 -0.09496,-0.32485 -0.16031,-0.48094v0c-5.35438,-8.89318 -5.49877,-19.98215 -0.37776,-29.01173c5.12101,-9.02958 14.712,-14.59726 25.09261,-14.56655c3.55421,-0.01287 7.07944,0.63962 10.39359,1.92375c0.1593,0.02547 0.32164,0.02547 0.48094,0c0.15934,0.02503 0.3216,0.02503 0.48094,0v0c0.23073,0.02772 0.46395,0.02772 0.69469,0c0.11545,-0.01237 0.23189,-0.01237 0.34734,0l0.40078,-0.29391c0.15448,-0.07929 0.29815,-0.17806 0.4275,-0.29391c0.07112,-0.08259 0.13378,-0.1721 0.18703,-0.26719c0.1644,-0.17786 0.29158,-0.3868 0.37406,-0.61453v0c0.01056,-0.15122 0.01056,-0.303 0,-0.45422c0.01248,-0.16899 0.01248,-0.33867 0,-0.50766v-51.59391c0,0 0.21375,0 0.21375,-0.16031z" fill="#f4b13d"></path><path d="M76.81641,83.17547l-64.79297,-37.40625h-0.16031c-0.16381,-0.06926 -0.33378,-0.12293 -0.50766,-0.16031h-0.50766h-0.16031h-0.32062c-0.19221,0.01898 -0.38096,0.06392 -0.56109,0.13359l-0.4275,0.21375l-0.4275,0.26719c-0.1302,0.13015 -0.2466,0.27341 -0.34734,0.4275l-0.24047,0.24047c0,0 0,0 0,0.16031c-0.06535,0.15609 -0.11894,0.31685 -0.16031,0.48094c-0.01256,0.1779 -0.01256,0.35647 0,0.53437l-0.18703,0.02672v74.8125c-0.0038,0.95836 0.50596,1.84535 1.33594,2.32453l64.79297,37.40625h0.18703h0.24047c0.28959,0.11483 0.59704,0.17812 0.90844,0.18703v0c0.3118,-0.00541 0.61986,-0.06883 0.90844,-0.18703h0.21375c0.27862,-0.12151 0.53228,-0.29364 0.74813,-0.50766v0c0.15691,-0.16611 0.29989,-0.34483 0.4275,-0.53438c0,0 0,0 0,-0.16031c0.06535,-0.15609 0.11894,-0.31685 0.16031,-0.48094c0.01256,-0.1779 0.01256,-0.35647 0,-0.53438c0,0 0,0 0,-0.16031v-74.75906c0.04985,-0.91612 -0.37383,-1.79375 -1.12219,-2.32453z" fill="#cc9b32"></path><path d="M142.89188,48.09375c0.01331,0.16896 0.01331,0.3387 0,0.50766c-0.04122,0.17284 -0.0948,0.34249 -0.16031,0.50766c0,0 0,0.21375 0,0.32062v0.16031l-0.16031,0.21375c-0.19061,0.2296 -0.416,0.42794 -0.66797,0.58781v0l-34.22672,19.61156l-5.34375,3.09937l-25.51641,14.72203c-0.82668,0.47728 -1.84519,0.47728 -2.67187,0l-64.79297,-37.40625v0c-0.15456,-0.11019 -0.29777,-0.23549 -0.4275,-0.37406l-0.34734,-0.37406v-0.13359c0,0 0,-0.21375 0,-0.32062c-0.20946,-0.18318 -0.39767,-0.38931 -0.56109,-0.61453c-0.03563,-0.3375 -0.03563,-0.67781 0,-1.01531c0.04122,-0.17284 0.0948,-0.34249 0.16031,-0.50766c0,0 0,-0.21375 0,-0.32062v-0.13359l0.34734,-0.37406c0.12973,-0.13857 0.27294,-0.26388 0.4275,-0.37406v0l31.79531,-18.35578l5.10328,-2.93906l27.89438,-16.03125c0.82668,-0.47728 1.84519,-0.47728 2.67188,0l65.19375,37.21922v0l0.37406,0.34734l0.37406,0.40078v0.13359c0,0 0,0.21375 0,0.32063c0.06551,0.16517 0.11909,0.33482 0.16031,0.50766c0.14716,0.19029 0.27263,0.39641 0.37406,0.61453z" fill="#ffcb70"></path><path d="M107.67656,68.45344v25.43625c0,1.47564 -1.19624,2.67188 -2.67187,2.67188c-1.47564,0 -2.67187,-1.19624 -2.67187,-2.67187v-24.04687l-61.18594,-42.42938l5.10328,-2.93906l60.22406,41.76141c0.74648,0.49158 1.19772,1.32386 1.20234,2.21766z" fill="#d7ff67"></path><path d="M128.91797,94.85156c-18.81436,0 -34.06641,15.25205 -34.06641,34.06641c0,18.81436 15.25205,34.06641 34.06641,34.06641c18.81436,0 34.06641,-15.25205 34.06641,-34.06641c-0.01473,-18.80825 -15.25816,-34.05167 -34.06641,-34.06641z" fill="#d7ff67"></path><path d="M125.04375,143.85375c-0.78102,0.00005 -1.52296,-0.34163 -2.03062,-0.93516l-10.79438,-12.77156c-0.95179,-1.12886 -0.80824,-2.81556 0.32062,-3.76734c1.12886,-0.95179 2.81556,-0.80824 3.76734,0.32063l8.68359,10.20656l16.61906,-21.85594c0.56002,-0.80756 1.51815,-1.2425 2.49471,-1.13249c0.97656,0.11002 1.8139,0.74724 2.18021,1.65915c0.36631,0.91191 0.20245,1.95131 -0.42663,2.7063l-18.67641,24.50109c-0.48745,0.65072 -1.24467,1.04408 -2.05734,1.06875z" fill="#2c2c2c"></path></g></g></g></svg>
