<svg xmlns="http://www.w3.org/2000/svg" viewBox="0 0 405.83 77.04"><defs><style>.cls-1{font-size:29.08px;font-family:Gotham-Bold, Gotham;font-weight:700;letter-spacing:0.21em;}.cls-1,.cls-4,.cls-9{fill:#fff;}.cls-2{letter-spacing:0.18em;}.cls-3{letter-spacing:0.2em;}.cls-4{font-size:16.16px;font-family:Gotham-Book, Gotham;letter-spacing:0.1em;}.cls-5{letter-spacing:0.06em;}.cls-6{letter-spacing:0.1em;}.cls-7{letter-spacing:0.04em;}.cls-8{fill:#cab44b;}</style></defs><g id="Layer_2" data-name="Layer 2"><g id="Layer_2-2" data-name="Layer 2"><text class="cls-1" transform="translate(117.26 38.45)">BG <tspan class="cls-2" x="71.29" y="0">L</tspan><tspan x="94.38" y="0">OGI</tspan><tspan class="cls-3" x="170.43" y="0">S</tspan><tspan x="194.87" y="0">TICS</tspan></text><text class="cls-4" transform="translate(117.11 59.75)">M<tspan class="cls-5" x="15.64" y="0">O</tspan><tspan class="cls-6" x="30.33" y="0">VING </tspan><tspan class="cls-7" x="85.51" y="0">Y</tspan><tspan class="cls-6" x="97.72" y="0">OUR FUTURE</tspan></text><polygon class="cls-8" points="69.03 6.61 69.03 0 66.17 1.65 38.53 17.61 35.67 19.26 41.39 22.56 69.03 6.61"/><polygon class="cls-8" points="69.03 6.61 69.03 0 71.89 1.65 99.53 17.61 102.39 19.26 96.67 22.56 69.03 6.61"/><polygon class="cls-9" points="69.03 70.43 69.03 77.04 71.89 75.39 99.53 59.43 102.39 57.78 96.67 54.48 69.03 70.43"/><polygon class="cls-9" points="102.39 57.78 102.39 54.48 102.39 22.56 102.39 19.26 102.39 19.26 96.67 22.56 96.67 22.56 96.67 54.48 102.39 57.78"/><polygon class="cls-9" points="69.03 70.43 69.03 77.04 66.17 75.39 38.53 59.43 35.67 57.78 41.39 54.48 69.03 70.43"/><polygon class="cls-8" points="41.39 29.84 41.39 22.56 41.39 22.56 35.67 19.26 35.67 22.56 35.67 29.84 41.39 29.84"/><polygon class="cls-8" points="35.67 38.09 35.67 54.48 35.67 57.78 41.39 54.48 41.39 39.41 35.67 38.09"/><polygon class="cls-8" points="0 22.56 69.03 38.52 96.67 22.56 0 22.56"/><polygon class="cls-9" points="69.03 38.52 96.67 22.56 69.03 70.43 69.03 38.52"/></g></g></svg>