<svg xmlns="http://www.w3.org/2000/svg" viewBox="0 0 237.28 146.01"><defs><style>.cls-1{fill:#fff;}.cls-2{fill:#cab44b;}</style></defs><g id="Layer_2" data-name="Layer 2"><g id="Layer_2-2" data-name="Layer 2"><path class="cls-1" d="M8.25,145.71H0V128.37H8.05c3.55,0,5.73,1.76,5.73,4.48v.05a4,4,0,0,1-2.28,3.74c2,.77,3.24,1.94,3.24,4.26v0C14.74,144.13,12.17,145.71,8.25,145.71ZM10,133.5c0-1.14-.9-1.79-2.51-1.79H3.72v3.67H7.24c1.68,0,2.75-.55,2.75-1.83Zm1,6.93c0-1.16-.86-1.88-2.82-1.88H3.72v3.82H8.25c1.69,0,2.7-.6,2.7-1.89Z"/><path class="cls-1" d="M31.58,146c-5.41,0-9.12-3.79-9.12-8.92V137a8.9,8.9,0,0,1,9.09-9,9.53,9.53,0,0,1,6.82,2.38L36,133.35a6.37,6.37,0,0,0-4.53-1.76,5.2,5.2,0,0,0-5,5.4v0a5.2,5.2,0,0,0,5.25,5.5,6.09,6.09,0,0,0,3.59-1V139H31.45v-3.29H39v7.53A11.28,11.28,0,0,1,31.58,146Z"/><path class="cls-1" d="M60.75,145.71V128.37h3.82v13.87h8.65v3.47Z"/><path class="cls-1" d="M88.86,146a8.89,8.89,0,0,1-9.19-8.92V137a9.22,9.22,0,0,1,18.43,0v0A9,9,0,0,1,88.86,146Zm5.25-9a5.27,5.27,0,0,0-5.25-5.45,5.19,5.19,0,0,0-5.21,5.4v0a5.27,5.27,0,0,0,5.26,5.45,5.19,5.19,0,0,0,5.2-5.4Z"/><path class="cls-1" d="M115.18,146c-5.4,0-9.12-3.79-9.12-8.92V137a8.9,8.9,0,0,1,9.1-9,9.5,9.5,0,0,1,6.81,2.38l-2.4,2.9a6.38,6.38,0,0,0-4.54-1.76,5.21,5.21,0,0,0-5,5.4v0a5.2,5.2,0,0,0,5.26,5.5,6.13,6.13,0,0,0,3.59-1V139h-3.84v-3.29h7.53v7.53A11.26,11.26,0,0,1,115.18,146Z"/><path class="cls-1" d="M131.77,145.71V128.37h3.81v17.34Z"/><path class="cls-1" d="M151.42,146a11,11,0,0,1-7.36-2.78l2.26-2.7a7.94,7.94,0,0,0,5.18,2.11c1.56,0,2.5-.62,2.5-1.64v0c0-1-.6-1.46-3.5-2.2-3.49-.89-5.74-1.86-5.74-5.3v-.05c0-3.15,2.52-5.23,6.07-5.23a10.06,10.06,0,0,1,6.44,2.2l-2,2.88a8.12,8.12,0,0,0-4.51-1.71c-1.47,0-2.23.67-2.23,1.51v.05c0,1.14.74,1.51,3.74,2.28,3.52.92,5.5,2.18,5.5,5.2v.05C157.79,144,155.16,146,151.42,146Z"/><path class="cls-1" d="M173.93,131.88v13.83h-3.82V131.88h-5.28v-3.51h14.38v3.51Z"/><path class="cls-1" d="M187.64,145.71V128.37h3.81v17.34Z"/><path class="cls-1" d="M209.25,146a8.76,8.76,0,0,1-8.9-8.92V137a8.82,8.82,0,0,1,9.05-9,9,9,0,0,1,6.84,2.67l-2.43,2.81a6.38,6.38,0,0,0-4.44-2,5.14,5.14,0,0,0-5,5.4v0a5.15,5.15,0,0,0,5,5.45,6.26,6.26,0,0,0,4.56-2l2.43,2.45A8.86,8.86,0,0,1,209.25,146Z"/><path class="cls-1" d="M230.91,146a11,11,0,0,1-7.36-2.78l2.26-2.7a7.94,7.94,0,0,0,5.18,2.11c1.56,0,2.5-.62,2.5-1.64v0c0-1-.59-1.46-3.49-2.2-3.5-.89-5.75-1.86-5.75-5.3v-.05c0-3.15,2.52-5.23,6.07-5.23a10,10,0,0,1,6.44,2.2l-2,2.88a8.12,8.12,0,0,0-4.51-1.71c-1.46,0-2.23.67-2.23,1.51v.05c0,1.14.74,1.51,3.74,2.28,3.52.92,5.5,2.18,5.5,5.2v.05C237.28,144,234.65,146,230.91,146Z"/><polygon class="cls-2" points="118.34 9.43 118.34 0 114.26 2.36 74.78 25.15 70.7 27.51 78.87 32.23 118.34 9.43"/><polygon class="cls-2" points="118.34 9.43 118.34 0 122.43 2.36 161.9 25.15 165.99 27.51 157.82 32.23 118.34 9.43"/><polygon class="cls-1" points="118.34 100.6 118.34 110.03 122.43 107.67 161.9 84.88 165.99 82.52 157.82 77.81 118.34 100.6"/><polygon class="cls-1" points="165.99 82.52 165.99 77.81 165.99 32.23 165.99 27.51 165.99 27.51 157.82 32.23 157.82 32.23 157.82 77.81 165.99 82.52"/><polygon class="cls-1" points="118.34 100.6 118.34 110.03 114.26 107.67 74.78 84.88 70.7 82.52 78.87 77.81 118.34 100.6"/><polygon class="cls-2" points="78.87 42.62 78.87 32.23 78.87 32.23 70.7 27.51 70.7 32.23 70.7 42.62 78.87 42.62"/><polygon class="cls-2" points="70.7 54.4 70.7 77.81 70.7 82.52 78.87 77.81 78.87 56.29 70.7 54.4"/><polygon class="cls-2" points="19.75 32.23 118.34 55.02 157.82 32.23 19.75 32.23"/><polygon class="cls-1" points="118.34 55.02 157.82 32.23 118.34 100.6 118.34 55.02"/></g></g></svg>