<svg xmlns="http://www.w3.org/2000/svg" viewBox="0 0 398.12 77.04"><defs><style>.cls-1{fill:#fff;}.cls-2{fill:#cab44b;}</style></defs><g id="Layer_2" data-name="Layer 2"><g id="Layer_2-2" data-name="Layer 2"><path class="cls-1" d="M129.38,38.45H119.7V18.09h9.45c4.16,0,6.72,2.06,6.72,5.26v.06a4.72,4.72,0,0,1-2.68,4.39c2.36.9,3.81,2.27,3.81,5v0C137,36.59,134,38.45,129.38,38.45Zm2-14.34c0-1.34-1-2.09-2.94-2.09h-4.42v4.3h4.13c2,0,3.23-.64,3.23-2.15Zm1.13,8.14c0-1.36-1-2.21-3.31-2.21h-5.18v4.48h5.32c2,0,3.17-.7,3.17-2.21Z"/><path class="cls-1" d="M156.75,38.8c-6.34,0-10.7-4.45-10.7-10.47v-.06a10.45,10.45,0,0,1,10.67-10.53,11.18,11.18,0,0,1,8,2.79l-2.82,3.4a7.53,7.53,0,0,0-5.32-2.06,6.12,6.12,0,0,0-5.85,6.34v.06a6.1,6.1,0,0,0,6.17,6.45,7.07,7.07,0,0,0,4.21-1.22V30.6h-4.5V26.73h8.84v8.84A13.27,13.27,0,0,1,156.75,38.8Z"/><path class="cls-1" d="M191,38.45V18.09h4.47V34.38h10.15v4.07Z"/><path class="cls-1" d="M224,38.8a10.43,10.43,0,0,1-10.79-10.47v-.06a10.82,10.82,0,0,1,21.63-.06v.06A10.52,10.52,0,0,1,224,38.8Zm6.16-10.53a6.19,6.19,0,0,0-6.16-6.4,6.09,6.09,0,0,0-6.11,6.34v.06a6.19,6.19,0,0,0,6.16,6.4,6.09,6.09,0,0,0,6.11-6.34Z"/><path class="cls-1" d="M254.85,38.8c-6.34,0-10.7-4.45-10.7-10.47v-.06a10.45,10.45,0,0,1,10.67-10.53,11.18,11.18,0,0,1,8,2.79L260,23.93a7.53,7.53,0,0,0-5.32-2.06,6.12,6.12,0,0,0-5.85,6.34v.06A6.1,6.1,0,0,0,255,34.72a7.12,7.12,0,0,0,4.22-1.22V30.6h-4.51V26.73h8.84v8.84A13.22,13.22,0,0,1,254.85,38.8Z"/><path class="cls-1" d="M274.31,38.45V18.09h4.48V38.45Z"/><path class="cls-1" d="M297.38,38.74a13,13,0,0,1-8.64-3.26l2.65-3.17a9.34,9.34,0,0,0,6.07,2.47c1.84,0,2.94-.72,2.94-1.92v0c0-1.14-.7-1.72-4.1-2.59-4.1-1-6.75-2.18-6.75-6.23v-.06c0-3.69,3-6.13,7.13-6.13a11.77,11.77,0,0,1,7.56,2.59l-2.33,3.37a9.53,9.53,0,0,0-5.29-2c-1.72,0-2.62.79-2.62,1.78v.06c0,1.33.88,1.77,4.39,2.67,4.13,1.08,6.46,2.56,6.46,6.11v.06C304.85,36.47,301.77,38.74,297.38,38.74Z"/><path class="cls-1" d="M323.78,22.22V38.45h-4.47V22.22h-6.2V18.09H330v4.13Z"/><path class="cls-1" d="M339.87,38.45V18.09h4.48V38.45Z"/><path class="cls-1" d="M365.23,38.8a10.28,10.28,0,0,1-10.44-10.47v-.06a10.35,10.35,0,0,1,10.62-10.53,10.5,10.5,0,0,1,8,3.14l-2.85,3.29a7.49,7.49,0,0,0-5.2-2.3,6,6,0,0,0-5.91,6.34v.06c0,3.49,2.42,6.4,5.91,6.4a7.34,7.34,0,0,0,5.35-2.39l2.85,2.88A10.42,10.42,0,0,1,365.23,38.8Z"/><path class="cls-1" d="M390.65,38.74A13,13,0,0,1,382,35.48l2.65-3.17a9.34,9.34,0,0,0,6.08,2.47c1.83,0,2.93-.72,2.93-1.92v0c0-1.14-.69-1.72-4.1-2.59-4.1-1-6.74-2.18-6.74-6.23v-.06c0-3.69,3-6.13,7.12-6.13a11.75,11.75,0,0,1,7.56,2.59l-2.32,3.37a9.59,9.59,0,0,0-5.3-2c-1.71,0-2.61.79-2.61,1.78v.06c0,1.33.87,1.77,4.39,2.67,4.13,1.08,6.45,2.56,6.45,6.11v.06C398.12,36.47,395,38.74,390.65,38.74Z"/><path class="cls-1" d="M124.14,56.64h-.07l-4.12-6v9.15h-1.24V48.43H120l4.12,6.18,4.12-6.18h1.29V59.75h-1.27V50.58Z"/><path class="cls-1" d="M145,56.31a6.12,6.12,0,0,1-1.18,1.87,5.7,5.7,0,0,1-4.19,1.76,5.77,5.77,0,0,1-2.35-.47,5.47,5.47,0,0,1-1.82-1.27,5.59,5.59,0,0,1-1.17-1.86,6.17,6.17,0,0,1-.41-2.23,6,6,0,0,1,.42-2.24A5.77,5.77,0,0,1,135.45,50a5.54,5.54,0,0,1,1.82-1.28,5.69,5.69,0,0,1,2.36-.48,5.77,5.77,0,0,1,2.35.47A5.37,5.37,0,0,1,143.8,50,5.44,5.44,0,0,1,145,51.84a6,6,0,0,1,.42,2.23A6.19,6.19,0,0,1,145,56.31Zm-1.24-4a4.47,4.47,0,0,0-.93-1.49,4.58,4.58,0,0,0-1.41-1,4.25,4.25,0,0,0-1.79-.37,4.4,4.4,0,0,0-1.79.36,4.27,4.27,0,0,0-1.39,1,4.57,4.57,0,0,0-.92,1.48,4.93,4.93,0,0,0-.33,1.81,5,5,0,0,0,.33,1.83,4.4,4.4,0,0,0,2.35,2.49,4.2,4.2,0,0,0,1.78.37,4.24,4.24,0,0,0,3.19-1.36,4.72,4.72,0,0,0,.91-1.48,4.93,4.93,0,0,0,.33-1.81A5,5,0,0,0,143.73,52.28Z"/><path class="cls-1" d="M157.55,48.43h1.38l-4.87,11.4h-1.13l-4.86-11.4h1.42l4,9.75Z"/><path class="cls-1" d="M164.16,48.43V59.75h-1.28V48.43Z"/><path class="cls-1" d="M177.41,48.43h1.24V59.75h-1l-7.31-9.28v9.28h-1.24V48.43h1.19l7.13,9.07Z"/><path class="cls-1" d="M191.31,59.43a6.33,6.33,0,0,1-2.59.51,6.11,6.11,0,0,1-2.4-.45,5.35,5.35,0,0,1-3-3.11,6.56,6.56,0,0,1-.39-2.27,6.21,6.21,0,0,1,.41-2.23A5.76,5.76,0,0,1,184.54,50a5.48,5.48,0,0,1,4.1-1.76,7.46,7.46,0,0,1,1.3.1,5.38,5.38,0,0,1,1.1.29,5,5,0,0,1,1,.48,7.37,7.37,0,0,1,.87.63l-.83,1a4.89,4.89,0,0,0-.68-.52,4.6,4.6,0,0,0-.76-.41,4.84,4.84,0,0,0-.91-.26,5.25,5.25,0,0,0-1.09-.1,4,4,0,0,0-1.73.37,4.13,4.13,0,0,0-1.35,1,4.5,4.5,0,0,0-.89,1.48,4.92,4.92,0,0,0-.33,1.8,5.51,5.51,0,0,0,.32,1.89,4.31,4.31,0,0,0,.9,1.49,3.8,3.8,0,0,0,1.4,1,4.61,4.61,0,0,0,1.86.36,5,5,0,0,0,1.82-.33,5.32,5.32,0,0,0,1.44-.81V54.85h-3.44V53.72h4.67v4.5A7.44,7.44,0,0,1,191.31,59.43Z"/><path class="cls-1" d="M209,59.75h-1.27V55.27l-4.71-6.84h1.55l3.81,5.66,3.84-5.66h1.48L209,55.25Z"/><path class="cls-1" d="M227.05,56.31a5.94,5.94,0,0,1-1.18,1.87,5.7,5.7,0,0,1-4.19,1.76,5.8,5.8,0,0,1-2.35-.47,5.58,5.58,0,0,1-1.82-1.27,5.76,5.76,0,0,1-1.17-1.86,6.17,6.17,0,0,1-.41-2.23,6,6,0,0,1,.42-2.24A5.77,5.77,0,0,1,217.53,50a5.7,5.7,0,0,1,4.19-1.76,5.8,5.8,0,0,1,2.35.47A5.43,5.43,0,0,1,225.88,50a5.62,5.62,0,0,1,1.18,1.86,6.17,6.17,0,0,1,.41,2.23A6,6,0,0,1,227.05,56.31Zm-1.24-4a4.47,4.47,0,0,0-.93-1.49,4.58,4.58,0,0,0-1.41-1,4.22,4.22,0,0,0-1.79-.37,4.36,4.36,0,0,0-1.78.36,4.31,4.31,0,0,0-1.4,1,4.54,4.54,0,0,0-.91,1.48,4.93,4.93,0,0,0-.33,1.81,5,5,0,0,0,.33,1.83,4.43,4.43,0,0,0,2.34,2.49,4.22,4.22,0,0,0,1.79.37,4.36,4.36,0,0,0,1.78-.36,4.31,4.31,0,0,0,1.4-1,4.54,4.54,0,0,0,.91-1.48,4.93,4.93,0,0,0,.33-1.81A5,5,0,0,0,225.81,52.28Z"/><path class="cls-1" d="M241,54.91a6.38,6.38,0,0,1-.34,2.19,4.11,4.11,0,0,1-1,1.56,4,4,0,0,1-1.48,1,6.13,6.13,0,0,1-3.85,0,4,4,0,0,1-1.49-.94,4.29,4.29,0,0,1-1-1.54A6.28,6.28,0,0,1,231.6,55V48.43h1.28v6.5a4,4,0,0,0,.91,2.83,3.29,3.29,0,0,0,2.55,1,3.37,3.37,0,0,0,2.49-.93,3.87,3.87,0,0,0,.92-2.8V48.43H241Z"/><path class="cls-1" d="M253.45,59.75l-3.28-4.4h-3.23v4.4h-1.28V48.43h4.86a5.51,5.51,0,0,1,1.69.25,4,4,0,0,1,1.29.68,3.11,3.11,0,0,1,1.11,2.45,3.35,3.35,0,0,1-.22,1.27,2.93,2.93,0,0,1-.64,1,3.46,3.46,0,0,1-1,.69,4.91,4.91,0,0,1-1.23.39L255,59.75Zm-.87-9.54a3.4,3.4,0,0,0-2.14-.6h-3.5v4.61h3.48a4,4,0,0,0,1.17-.16,3.17,3.17,0,0,0,.92-.46,2.28,2.28,0,0,0,.61-.74,2.25,2.25,0,0,0,.22-1A2,2,0,0,0,252.58,50.21Z"/><path class="cls-1" d="M273.55,49.61H266.7v4h6.12v1.17H266.7v4.93h-1.28V48.43h8.13Z"/><path class="cls-1" d="M286.88,54.91a6.38,6.38,0,0,1-.34,2.19,4.11,4.11,0,0,1-1,1.56,3.93,3.93,0,0,1-1.49,1,5.58,5.58,0,0,1-1.93.31,5.51,5.51,0,0,1-1.91-.31,4,4,0,0,1-1.49-.94,4.29,4.29,0,0,1-1-1.54,6,6,0,0,1-.34-2.12V48.43h1.28v6.5a4,4,0,0,0,.91,2.83,3.79,3.79,0,0,0,5,.05,3.83,3.83,0,0,0,.92-2.8V48.43h1.28Z"/><path class="cls-1" d="M295.78,59.75h-1.27V49.61h-3.8V48.43h8.87v1.18h-3.8Z"/><path class="cls-1" d="M312.85,54.91a6.63,6.63,0,0,1-.34,2.19,4.38,4.38,0,0,1-1,1.56,4,4,0,0,1-1.49,1,6.13,6.13,0,0,1-3.85,0,3.94,3.94,0,0,1-1.48-.94,4,4,0,0,1-1-1.54,6,6,0,0,1-.34-2.12V48.43h1.27v6.5a4,4,0,0,0,.92,2.83,3.26,3.26,0,0,0,2.54,1,3.33,3.33,0,0,0,2.49-.93,3.87,3.87,0,0,0,.92-2.8V48.43h1.28Z"/><path class="cls-1" d="M325.27,59.75,322,55.35h-3.23v4.4h-1.28V48.43h4.87a5.56,5.56,0,0,1,1.69.25,3.81,3.81,0,0,1,1.28.68,3.19,3.19,0,0,1,.83,1.07,3.31,3.31,0,0,1,.29,1.38,3.34,3.34,0,0,1-.23,1.27,2.78,2.78,0,0,1-.64,1,3.33,3.33,0,0,1-1,.69,4.71,4.71,0,0,1-1.22.39l3.47,4.62Zm-.87-9.54a3.38,3.38,0,0,0-2.14-.6h-3.5v4.61h3.48a3.94,3.94,0,0,0,1.17-.16,3.05,3.05,0,0,0,.92-.46,2.16,2.16,0,0,0,.61-.74,2.12,2.12,0,0,0,.22-1A2,2,0,0,0,324.4,50.21Z"/><path class="cls-1" d="M339,49.6h-6.9v3.86h6.17v1.16h-6.17v4h7v1.17h-8.26V48.43H339Z"/><polygon class="cls-2" points="69.03 6.61 69.03 0 66.17 1.65 38.53 17.61 35.67 19.26 41.39 22.56 69.03 6.61"/><polygon class="cls-2" points="69.03 6.61 69.03 0 71.89 1.65 99.53 17.61 102.39 19.26 96.67 22.56 69.03 6.61"/><polygon class="cls-1" points="69.03 70.43 69.03 77.04 71.89 75.39 99.53 59.43 102.39 57.78 96.67 54.48 69.03 70.43"/><polygon class="cls-1" points="102.39 57.78 102.39 54.48 102.39 22.56 102.39 19.26 102.39 19.26 96.67 22.56 96.67 22.56 96.67 54.48 102.39 57.78"/><polygon class="cls-1" points="69.03 70.43 69.03 77.04 66.17 75.39 38.53 59.43 35.67 57.78 41.39 54.48 69.03 70.43"/><polygon class="cls-2" points="41.39 29.84 41.39 22.56 41.39 22.56 35.67 19.26 35.67 22.56 35.67 29.84 41.39 29.84"/><polygon class="cls-2" points="35.67 38.09 35.67 54.48 35.67 57.78 41.39 54.48 41.39 39.41 35.67 38.09"/><polygon class="cls-2" points="0 22.56 69.03 38.52 96.67 22.56 0 22.56"/><polygon class="cls-1" points="69.03 38.52 96.67 22.56 69.03 70.43 69.03 38.52"/></g></g></svg>